<mxfile host="app.diagrams.net" modified="2024-06-19T14:05:19.131Z" agent="Mozilla/5.0 (Windows NT 10.0; Win64; x64) AppleWebKit/537.36 (KHTML, like Gecko) Chrome/121.0.0.0 Safari/537.36" etag="xS0nt-cDIeFpsoLGsHG0" version="24.5.5" type="device">
  <diagram name="Página-1" id="2aVtxD48sr5Gl6SGyFz3">
    <mxGraphModel dx="1434" dy="782" grid="1" gridSize="10" guides="1" tooltips="1" connect="1" arrows="1" fold="1" page="1" pageScale="1" pageWidth="827" pageHeight="1169" math="0" shadow="0">
      <root>
        <mxCell id="0" />
        <mxCell id="1" parent="0" />
        <mxCell id="dLJQcsunNO43MkUtJGml-1" value="CLIENTE" style="rounded=0;whiteSpace=wrap;html=1;" parent="1" vertex="1">
          <mxGeometry x="160" y="200" width="130" height="40" as="geometry" />
        </mxCell>
        <mxCell id="dLJQcsunNO43MkUtJGml-2" value="" style="rounded=0;whiteSpace=wrap;html=1;" parent="1" vertex="1">
          <mxGeometry x="160" y="240" width="130" height="60" as="geometry" />
        </mxCell>
        <mxCell id="dLJQcsunNO43MkUtJGml-4" value="" style="rounded=0;whiteSpace=wrap;html=1;" parent="1" vertex="1">
          <mxGeometry x="160" y="300" width="130" height="60" as="geometry" />
        </mxCell>
        <mxCell id="dLJQcsunNO43MkUtJGml-5" value="- ENDEREÇO&lt;div&gt;- CPF&lt;br&gt;&lt;div style=&quot;font-size: 8px;&quot;&gt;&lt;br style=&quot;font-size: 8px;&quot;&gt;&lt;/div&gt;&lt;/div&gt;" style="text;html=1;align=left;verticalAlign=middle;whiteSpace=wrap;rounded=0;fontSize=8;" parent="1" vertex="1">
          <mxGeometry x="195" y="255" width="60" height="30" as="geometry" />
        </mxCell>
        <mxCell id="dLJQcsunNO43MkUtJGml-7" value="PESSOA" style="rounded=0;whiteSpace=wrap;html=1;" parent="1" vertex="1">
          <mxGeometry x="160" y="20" width="130" height="40" as="geometry" />
        </mxCell>
        <mxCell id="dLJQcsunNO43MkUtJGml-22" value="" style="edgeStyle=orthogonalEdgeStyle;rounded=0;orthogonalLoop=1;jettySize=auto;html=1;entryX=0;entryY=0.5;entryDx=0;entryDy=0;" parent="1" source="dLJQcsunNO43MkUtJGml-8" target="dLJQcsunNO43MkUtJGml-18" edge="1">
          <mxGeometry relative="1" as="geometry" />
        </mxCell>
        <mxCell id="dLJQcsunNO43MkUtJGml-8" value="" style="rounded=0;whiteSpace=wrap;html=1;" parent="1" vertex="1">
          <mxGeometry x="160" y="60" width="130" height="60" as="geometry" />
        </mxCell>
        <mxCell id="dLJQcsunNO43MkUtJGml-13" value="" style="edgeStyle=orthogonalEdgeStyle;rounded=0;orthogonalLoop=1;jettySize=auto;html=1;entryX=0.5;entryY=0;entryDx=0;entryDy=0;" parent="1" source="dLJQcsunNO43MkUtJGml-9" target="dLJQcsunNO43MkUtJGml-1" edge="1">
          <mxGeometry relative="1" as="geometry" />
        </mxCell>
        <mxCell id="dLJQcsunNO43MkUtJGml-9" value="" style="rounded=0;whiteSpace=wrap;html=1;" parent="1" vertex="1">
          <mxGeometry x="160" y="120" width="130" height="60" as="geometry" />
        </mxCell>
        <mxCell id="dLJQcsunNO43MkUtJGml-10" value="&lt;div style=&quot;font-size: 7px;&quot;&gt;&lt;div style=&quot;font-size: 7px;&quot;&gt;&lt;font style=&quot;font-size: 7px;&quot;&gt;+ ID&lt;/font&gt;&lt;/div&gt;&lt;div style=&quot;font-size: 7px;&quot;&gt;&lt;font style=&quot;font-size: 7px;&quot;&gt;-&amp;nbsp; NOME&lt;/font&gt;&lt;/div&gt;&lt;/div&gt;&lt;div style=&quot;font-size: 7px;&quot;&gt;&lt;font style=&quot;font-size: 7px;&quot;&gt;- TELEFONE&lt;/font&gt;&lt;/div&gt;" style="text;html=1;align=left;verticalAlign=middle;whiteSpace=wrap;rounded=0;fontSize=7;" parent="1" vertex="1">
          <mxGeometry x="195" y="75" width="60" height="30" as="geometry" />
        </mxCell>
        <mxCell id="dLJQcsunNO43MkUtJGml-14" value="&lt;div style=&quot;font-size: 11px;&quot;&gt;+ SetNome&lt;div&gt;+ GetNome&lt;/div&gt;&lt;div&gt;+ SetTelefone&lt;/div&gt;&lt;div&gt;+ GetTelefone&lt;/div&gt;&lt;div&gt;&lt;br&gt;&lt;/div&gt;&lt;div&gt;&lt;br&gt;&lt;/div&gt;&lt;/div&gt;" style="text;html=1;align=left;verticalAlign=middle;whiteSpace=wrap;rounded=0;fontSize=10;" parent="1" vertex="1">
          <mxGeometry x="172.5" y="150" width="105" height="30" as="geometry" />
        </mxCell>
        <mxCell id="dLJQcsunNO43MkUtJGml-16" value="&lt;div style=&quot;font-size: 11px;&quot;&gt;+ SetEndereço&lt;div&gt;+ GetEndereço&lt;/div&gt;&lt;div&gt;&lt;span style=&quot;background-color: initial;&quot;&gt;+ SetCPF&lt;/span&gt;&lt;/div&gt;&lt;div&gt;&lt;span style=&quot;background-color: initial;&quot;&gt;+ GetCPF&lt;/span&gt;&lt;/div&gt;&lt;div&gt;&lt;br&gt;&lt;/div&gt;&lt;div&gt;&lt;br&gt;&lt;/div&gt;&lt;/div&gt;" style="text;html=1;align=left;verticalAlign=middle;whiteSpace=wrap;rounded=0;fontSize=10;" parent="1" vertex="1">
          <mxGeometry x="172.5" y="330" width="105" height="30" as="geometry" />
        </mxCell>
        <mxCell id="dLJQcsunNO43MkUtJGml-17" value="FORNECEDOR" style="rounded=0;whiteSpace=wrap;html=1;" parent="1" vertex="1">
          <mxGeometry x="320" y="20" width="130" height="40" as="geometry" />
        </mxCell>
        <mxCell id="dLJQcsunNO43MkUtJGml-18" value="" style="rounded=0;whiteSpace=wrap;html=1;" parent="1" vertex="1">
          <mxGeometry x="320" y="60" width="130" height="60" as="geometry" />
        </mxCell>
        <mxCell id="dLJQcsunNO43MkUtJGml-19" value="" style="rounded=0;whiteSpace=wrap;html=1;" parent="1" vertex="1">
          <mxGeometry x="320" y="120" width="130" height="60" as="geometry" />
        </mxCell>
        <mxCell id="dLJQcsunNO43MkUtJGml-23" value="&lt;div&gt;&lt;br&gt;&lt;/div&gt;&lt;div&gt;&lt;span style=&quot;background-color: initial;&quot;&gt;- E-MAIL&lt;/span&gt;&lt;br&gt;&lt;/div&gt;&lt;div&gt;- CNPJ&lt;br&gt;&lt;div style=&quot;font-size: 8px;&quot;&gt;&lt;br style=&quot;font-size: 8px;&quot;&gt;&lt;/div&gt;&lt;/div&gt;" style="text;html=1;align=left;verticalAlign=middle;whiteSpace=wrap;rounded=0;fontSize=8;" parent="1" vertex="1">
          <mxGeometry x="354" y="75" width="60" height="30" as="geometry" />
        </mxCell>
        <mxCell id="dLJQcsunNO43MkUtJGml-24" value="&lt;div style=&quot;font-size: 10px;&quot;&gt;+ SetEmail&lt;div&gt;+ GetEmail&lt;/div&gt;&lt;div&gt;&lt;span style=&quot;background-color: initial;&quot;&gt;+ SetCNPJ&lt;/span&gt;&lt;/div&gt;&lt;div&gt;&lt;span style=&quot;background-color: initial;&quot;&gt;+ GetCNPJ&lt;/span&gt;&lt;/div&gt;&lt;div&gt;&lt;br&gt;&lt;/div&gt;&lt;div&gt;&lt;br&gt;&lt;/div&gt;&lt;/div&gt;" style="text;html=1;align=left;verticalAlign=middle;whiteSpace=wrap;rounded=0;fontSize=10;" parent="1" vertex="1">
          <mxGeometry x="332.5" y="150" width="105" height="30" as="geometry" />
        </mxCell>
        <mxCell id="dLJQcsunNO43MkUtJGml-26" value="MATÉRIA PRIMA" style="rounded=0;whiteSpace=wrap;html=1;" parent="1" vertex="1">
          <mxGeometry x="470" y="20" width="140" height="40" as="geometry" />
        </mxCell>
        <mxCell id="dLJQcsunNO43MkUtJGml-27" value="" style="rounded=0;whiteSpace=wrap;html=1;" parent="1" vertex="1">
          <mxGeometry x="470" y="60" width="140" height="60" as="geometry" />
        </mxCell>
        <mxCell id="dLJQcsunNO43MkUtJGml-28" value="" style="rounded=0;whiteSpace=wrap;html=1;" parent="1" vertex="1">
          <mxGeometry x="470" y="120" width="140" height="80" as="geometry" />
        </mxCell>
        <mxCell id="dLJQcsunNO43MkUtJGml-30" value="+ ID&lt;div&gt;&amp;nbsp;UNIDADE&lt;div&gt;- COR&lt;/div&gt;&lt;div&gt;- CÓDIGO&lt;br&gt;&lt;div style=&quot;font-size: 8px;&quot;&gt;&lt;br style=&quot;font-size: 8px;&quot;&gt;&lt;/div&gt;&lt;/div&gt;&lt;/div&gt;" style="text;html=1;align=left;verticalAlign=middle;whiteSpace=wrap;rounded=0;fontSize=8;" parent="1" vertex="1">
          <mxGeometry x="510" y="75" width="60" height="30" as="geometry" />
        </mxCell>
        <mxCell id="dLJQcsunNO43MkUtJGml-31" value="&lt;div style=&quot;&quot;&gt;+ SetUnidade&lt;div style=&quot;&quot;&gt;+ GetUnidade&lt;/div&gt;&lt;div style=&quot;&quot;&gt;&lt;span style=&quot;background-color: initial;&quot;&gt;+ SetCor&lt;/span&gt;&lt;/div&gt;&lt;div style=&quot;&quot;&gt;&lt;span style=&quot;background-color: initial;&quot;&gt;+ GetCor&lt;/span&gt;&lt;/div&gt;&lt;div style=&quot;&quot;&gt;&lt;span style=&quot;background-color: initial;&quot;&gt;+ SetCódigo&lt;/span&gt;&lt;/div&gt;&lt;div style=&quot;&quot;&gt;&lt;span style=&quot;background-color: initial;&quot;&gt;+ GetCódigo&lt;/span&gt;&lt;/div&gt;&lt;div style=&quot;&quot;&gt;&lt;br style=&quot;&quot;&gt;&lt;/div&gt;&lt;/div&gt;" style="text;html=1;align=left;verticalAlign=middle;whiteSpace=wrap;rounded=0;fontSize=10;" parent="1" vertex="1">
          <mxGeometry x="478.75" y="155" width="122.5" height="20" as="geometry" />
        </mxCell>
        <mxCell id="dLJQcsunNO43MkUtJGml-32" value="ESTOQUE DE PRODUTOS" style="rounded=0;whiteSpace=wrap;html=1;" parent="1" vertex="1">
          <mxGeometry x="324" y="200" width="126" height="40" as="geometry" />
        </mxCell>
        <mxCell id="dLJQcsunNO43MkUtJGml-34" value="" style="rounded=0;whiteSpace=wrap;html=1;" parent="1" vertex="1">
          <mxGeometry x="324" y="240" width="126" height="60" as="geometry" />
        </mxCell>
        <mxCell id="dLJQcsunNO43MkUtJGml-36" value="&lt;div style=&quot;&quot;&gt;&lt;font style=&quot;font-size: 8px;&quot;&gt;+ ID&lt;/font&gt;&lt;/div&gt;&lt;div style=&quot;&quot;&gt;&lt;font style=&quot;font-size: 8px;&quot;&gt;-&lt;span style=&quot;background-color: initial;&quot;&gt;ITEM&lt;/span&gt;&lt;/font&gt;&lt;/div&gt;&lt;div style=&quot;&quot;&gt;&lt;font style=&quot;font-size: 8px;&quot;&gt;-&lt;span style=&quot;background-color: initial;&quot;&gt;&amp;nbsp;UNIDADE&lt;/span&gt;&lt;/font&gt;&lt;/div&gt;&lt;div style=&quot;&quot;&gt;&lt;div style=&quot;&quot;&gt;&lt;font style=&quot;font-size: 8px;&quot;&gt;- QUANTIDADE&lt;/font&gt;&lt;/div&gt;&lt;/div&gt;" style="text;html=1;align=left;verticalAlign=middle;whiteSpace=wrap;rounded=0;fontSize=8;" parent="1" vertex="1">
          <mxGeometry x="355" y="201.25" width="64" height="137.5" as="geometry" />
        </mxCell>
        <mxCell id="dLJQcsunNO43MkUtJGml-37" value="&lt;div style=&quot;text-align: left;&quot;&gt;&lt;br&gt;&lt;/div&gt;&lt;font style=&quot;font-size: 12px;&quot;&gt;&lt;div style=&quot;text-align: left;&quot;&gt;&lt;span style=&quot;background-color: initial;&quot;&gt;+ SetItem&lt;/span&gt;&lt;/div&gt;&lt;/font&gt;&lt;div style=&quot;text-align: left;&quot;&gt;&lt;font style=&quot;font-size: 12px;&quot;&gt;+ GetItem&lt;/font&gt;&lt;/div&gt;&lt;div style=&quot;text-align: left;&quot;&gt;&lt;font style=&quot;font-size: 12px;&quot;&gt;+ SetUnidade&lt;/font&gt;&lt;/div&gt;&lt;div style=&quot;text-align: left;&quot;&gt;&lt;font style=&quot;font-size: 12px;&quot;&gt;+ GetUnidade&lt;/font&gt;&lt;/div&gt;&lt;div style=&quot;text-align: left;&quot;&gt;&lt;font style=&quot;font-size: 12px;&quot;&gt;+ SetQuantidade&lt;/font&gt;&lt;/div&gt;&lt;div style=&quot;text-align: left;&quot;&gt;&lt;font style=&quot;font-size: 12px;&quot;&gt;+ GetQuantidade&lt;/font&gt;&lt;/div&gt;&lt;div style=&quot;text-align: left;&quot;&gt;&lt;font style=&quot;font-size: 12px;&quot;&gt;&lt;br&gt;&lt;/font&gt;&lt;/div&gt;&lt;div style=&quot;&quot;&gt;&lt;div style=&quot;text-align: left;&quot;&gt;&lt;br&gt;&lt;/div&gt;&lt;div style=&quot;text-align: left;&quot;&gt;&lt;br&gt;&lt;/div&gt;&lt;/div&gt;" style="rounded=0;whiteSpace=wrap;html=1;" parent="1" vertex="1">
          <mxGeometry x="324" y="300" width="126" height="120" as="geometry" />
        </mxCell>
        <mxCell id="9ucrw6PBnXJ4YIovf_b4-1" value="&amp;nbsp;PRODUTO E VENDA" style="rounded=0;whiteSpace=wrap;html=1;" vertex="1" parent="1">
          <mxGeometry x="470" y="220" width="140" height="40" as="geometry" />
        </mxCell>
        <mxCell id="9ucrw6PBnXJ4YIovf_b4-2" value="&lt;div style=&quot;font-size: 8px; text-align: left;&quot;&gt;+ ID&lt;/div&gt;&lt;div style=&quot;font-size: 8px; text-align: left;&quot;&gt;- NOME&lt;/div&gt;&lt;div style=&quot;font-size: 8px; text-align: left;&quot;&gt;-&lt;span style=&quot;background-color: initial;&quot;&gt;&amp;nbsp;VALOR&lt;/span&gt;&lt;/div&gt;&lt;div style=&quot;font-size: 8px; text-align: left;&quot;&gt;- TEMPO DE PRODUÇÃO&lt;/div&gt;" style="rounded=0;whiteSpace=wrap;html=1;" vertex="1" parent="1">
          <mxGeometry x="470" y="260" width="140" height="60" as="geometry" />
        </mxCell>
        <mxCell id="9ucrw6PBnXJ4YIovf_b4-3" value="&lt;div style=&quot;forced-color-adjust: none;&quot;&gt;&lt;br&gt;&lt;/div&gt;" style="rounded=0;whiteSpace=wrap;html=1;align=left;" vertex="1" parent="1">
          <mxGeometry x="760" y="380" width="140" as="geometry" />
        </mxCell>
        <mxCell id="9ucrw6PBnXJ4YIovf_b4-4" value="" style="rounded=0;whiteSpace=wrap;html=1;" vertex="1" parent="1">
          <mxGeometry x="470" y="320" width="140" height="90" as="geometry" />
        </mxCell>
        <mxCell id="9ucrw6PBnXJ4YIovf_b4-5" value="&lt;div style=&quot;text-align: left;&quot;&gt;&lt;span style=&quot;font-size: 11px; background-color: initial;&quot;&gt;+ SetNome&lt;/span&gt;&lt;/div&gt;&lt;div style=&quot;text-align: left; font-size: 11px;&quot;&gt;&lt;font style=&quot;font-size: 11px;&quot;&gt;+ GetNome&lt;/font&gt;&lt;/div&gt;&lt;div style=&quot;text-align: left; font-size: 11px;&quot;&gt;&lt;font style=&quot;font-size: 11px;&quot;&gt;+ SetValor&lt;/font&gt;&lt;/div&gt;&lt;div style=&quot;text-align: left; font-size: 11px;&quot;&gt;&lt;font style=&quot;font-size: 11px;&quot;&gt;+ GetValor&lt;/font&gt;&lt;/div&gt;&lt;div style=&quot;text-align: left; font-size: 11px;&quot;&gt;&lt;font style=&quot;font-size: 11px;&quot;&gt;+SetTempoDeProdução&lt;/font&gt;&lt;/div&gt;&lt;div style=&quot;text-align: left; font-size: 11px;&quot;&gt;&lt;font style=&quot;font-size: 11px;&quot;&gt;+GetTempoDeProdução&lt;/font&gt;&lt;/div&gt;&lt;div style=&quot;text-align: left; font-size: 11px;&quot;&gt;&lt;font style=&quot;font-size: 11px;&quot;&gt;&lt;br&gt;&lt;/font&gt;&lt;/div&gt;&lt;div style=&quot;&quot;&gt;&lt;div style=&quot;text-align: left;&quot;&gt;&lt;span style=&quot;font-size: 11px;&quot;&gt;&lt;br&gt;&lt;/span&gt;&lt;/div&gt;&lt;div style=&quot;text-align: left;&quot;&gt;&lt;br&gt;&lt;/div&gt;&lt;/div&gt;" style="text;html=1;align=center;verticalAlign=middle;whiteSpace=wrap;rounded=0;" vertex="1" parent="1">
          <mxGeometry x="510" y="370" width="70" height="30" as="geometry" />
        </mxCell>
      </root>
    </mxGraphModel>
  </diagram>
</mxfile>
